<?xml version="1.0" encoding="utf-8"?>
<!-- Generator: Adobe Illustrator 17.0.0, SVG Export Plug-In . SVG Version: 6.00 Build 0)  -->
<!DOCTYPE svg PUBLIC "-//W3C//DTD SVG 1.1//EN" "http://www.w3.org/Graphics/SVG/1.1/DTD/svg11.dtd">
<svg version="1.1" id="ie" xmlns="http://www.w3.org/2000/svg" xmlns:xlink="http://www.w3.org/1999/xlink" x="0px" y="0px"
	 width="514.025px" height="430.866px" viewBox="0 0 514.025 430.866" enable-background="new 0 0 514.025 430.866"
	 xml:space="preserve">
<g display="none">
	<rect x="56.694" y="311.811" display="inline" fill="#00338D" width="400.632" height="22.677"/>
	<g display="inline">
		<g>
			<path fill="#222220" d="M62.341,351.52h13.561v3.542h-9.444v5.934h7.626v3.541h-7.626v6.095h9.955v3.541H62.341V351.52z"/>
			<path fill="#222220" d="M85.885,362.687L79.12,351.52h4.69l3.095,5.552c0.734,1.309,1.437,2.776,1.437,2.776h0.063
				c0,0,0.638-1.437,1.372-2.776l3.158-5.552h4.723l-6.828,11.167l7.083,11.486h-4.626l-3.51-6.094
				c-0.734-1.309-1.404-2.681-1.404-2.681h-0.063c0,0-0.638,1.372-1.404,2.681l-3.478,6.094h-4.595L85.885,362.687z"/>
			<path fill="#222220" d="M101.833,351.52h8.743c4.243,0,7.21,2.968,7.21,7.37c0,4.403-2.967,7.467-7.21,7.467h-4.627v7.816h-4.116
				V351.52z M109.809,362.783c2.394,0,3.797-1.531,3.797-3.893c0-2.329-1.403-3.828-3.732-3.828h-3.925v7.721H109.809z"/>
			<path fill="#222220" d="M132.044,351.137c6.669,0,11.71,5.073,11.71,11.55c0,6.669-5.041,11.869-11.71,11.869
				c-6.668,0-11.709-5.2-11.709-11.869C120.335,356.21,125.376,351.137,132.044,351.137z M132.044,370.792
				c4.147,0,7.466-3.446,7.466-8.104c0-4.467-3.318-7.785-7.466-7.785c-4.147,0-7.466,3.318-7.466,7.785
				C124.578,367.345,127.896,370.792,132.044,370.792z"/>
			<path fill="#222220" d="M148.406,351.52h4.116l8.583,13.082c0.861,1.308,1.883,3.51,1.883,3.51h0.064c0,0-0.224-2.17-0.224-3.51
				V351.52h4.084v22.653h-4.084l-8.583-13.05c-0.861-1.308-1.882-3.509-1.882-3.509h-0.064c0,0,0.224,2.169,0.224,3.509v13.05
				h-4.116V351.52z"/>
			<path fill="#222220" d="M173.129,351.52h13.561v3.542h-9.444v5.934h7.626v3.541h-7.626v6.095h9.955v3.541h-14.071V351.52z"/>
			<path fill="#222220" d="M191.95,351.52h4.116l8.583,13.082c0.861,1.308,1.883,3.51,1.883,3.51h0.063c0,0-0.224-2.17-0.224-3.51
				V351.52h4.084v22.653h-4.084l-8.583-13.05c-0.861-1.308-1.882-3.509-1.882-3.509h-0.064c0,0,0.224,2.169,0.224,3.509v13.05
				h-4.116V351.52z"/>
			<path fill="#222220" d="M221.362,355.062h-7.434v-3.542h18.983v3.542h-7.434v19.111h-4.116V355.062z"/>
			<path fill="#222220" d="M236.386,351.52h4.116v22.653h-4.116V351.52z"/>
			<path fill="#222220" d="M257.985,368.367h-7.945l-1.914,5.807h-4.243l7.977-22.653h4.307l7.977,22.653h-4.243L257.985,368.367z
				 M253.997,355.445c0,0-0.511,2.233-0.958,3.51l-2.01,6.062h5.935l-2.01-6.062c-0.415-1.276-0.894-3.51-0.894-3.51H253.997z"/>
			<path fill="#222220" d="M267.519,351.52h4.116v19.112h9.795v3.541h-13.911V351.52z"/>
			<path fill="#222220" d="M293.422,351.52h4.116v19.112h9.795v3.541h-13.911V351.52z"/>
			<path fill="#222220" d="M311.095,351.52h13.56v3.542h-9.444v5.934h7.626v3.541h-7.626v6.095h9.955v3.541h-14.071V351.52z"/>
			<path fill="#222220" d="M341.178,368.367h-7.945l-1.914,5.807h-4.243l7.977-22.653h4.307l7.977,22.653h-4.243L341.178,368.367z
				 M337.19,355.445c0,0-0.511,2.233-0.958,3.51l-2.01,6.062h5.935l-2.01-6.062c-0.415-1.276-0.894-3.51-0.894-3.51H337.19z"/>
			<path fill="#222220" d="M350.714,351.52h7.307c2.457,0,3.574,0.191,4.562,0.639c2.266,1.021,3.701,3.19,3.701,6.189
				c0,2.712-1.435,5.232-3.828,6.189v0.064c0,0,0.318,0.318,0.766,1.116l4.658,8.455h-4.595l-4.499-8.455h-3.956v8.455h-4.116
				V351.52z M358.531,362.145c2.201,0,3.573-1.309,3.573-3.573c0-2.17-0.925-3.51-4.147-3.51h-3.127v7.083H358.531z"/>
			<path fill="#222220" d="M372.182,351.52h4.116l8.583,13.082c0.861,1.308,1.883,3.51,1.883,3.51h0.064c0,0-0.224-2.17-0.224-3.51
				V351.52h4.084v22.653h-4.084l-8.583-13.05c-0.861-1.308-1.882-3.509-1.882-3.509h-0.064c0,0,0.224,2.169,0.224,3.509v13.05
				h-4.116V351.52z"/>
			<path fill="#222220" d="M396.904,351.52h4.116v22.653h-4.116V351.52z"/>
			<path fill="#222220" d="M407.24,351.52h4.116l8.583,13.082c0.861,1.308,1.883,3.51,1.883,3.51h0.063c0,0-0.224-2.17-0.224-3.51
				V351.52h4.084v22.653h-4.084l-8.583-13.05c-0.861-1.308-1.882-3.509-1.882-3.509h-0.064c0,0,0.224,2.169,0.224,3.509v13.05
				h-4.116V351.52z"/>
			<path fill="#222220" d="M442.108,351.137c5.552,0,8.423,2.872,8.423,2.872l-2.041,3.062c0,0-2.426-2.17-6.03-2.17
				c-5.073,0-7.785,3.51-7.785,7.785c0,4.914,3.35,8.104,7.593,8.104c3.414,0,5.68-2.361,5.68-2.361v-2.647h-3.478v-3.542h7.179
				v11.933h-3.51v-1.085c0-0.478,0.032-0.957,0.032-0.957h-0.064c0,0-2.36,2.425-6.572,2.425c-5.967,0-11.103-4.626-11.103-11.741
				C430.431,356.243,435.376,351.137,442.108,351.137z"/>
		</g>
	</g>
	<g display="inline">
		<g>
			<path fill="#00338D" d="M320.1,130.663l-27.686-45.72h25.272l9.906,18.669c3.048,5.715,5.588,11.684,5.588,11.684h0.254
				c0,0,2.413-5.842,5.588-11.684l10.033-18.669h25.272l-27.812,45.72l27.686,45.085h-24.765l-10.414-19.05
				c-3.175-5.715-5.588-11.303-5.588-11.303h-0.254c0,0-2.413,5.588-5.588,11.303l-10.414,19.05h-24.638L320.1,130.663z"/>
			<path fill="#00338D" d="M388.806,84.944h22.225v71.755h37.084v19.05h-59.309V84.944z"/>
		</g>
	</g>
	<g display="inline">
		<g id="XMLID_1_">
			<path fill="#0097DC" d="M85.053,56.693c15.62,0,28.346,12.68,28.346,28.327s-12.727,28.366-28.346,28.366
				c-15.658,0-28.346-12.718-28.346-28.366S69.395,56.693,85.053,56.693z"/>
		</g>
		<g>
			<rect x="62.362" y="130.393" fill="#00338D" width="45.354" height="147.402"/>
			<path fill="#00338D" d="M269.815,204.561l-0.001-0.806c-0.155-42.724-28.723-77.3-75.379-77.3h0
				c-46.656,0-75.223,34.576-75.379,77.3l-0.001,0.806c0,46.923,36.328,77.195,81.737,77.195c23.613,0,47.528-10.595,62.06-29.062
				l-30.902-22.661c-8.153,9.558-18.443,17.213-33.277,17.213c-17.558,0-30.576-11.202-34.208-28.457h104.152
				C269.39,214.237,269.815,209.497,269.815,204.561z M195.613,184.719h-29.137c2.786-11.49,12.135-21.899,29.137-21.899
				s26.351,10.409,29.137,21.899H195.613z"/>
		</g>
	</g>
</g>
<g>
	<rect x="56.694" y="311.811" fill="#00338D" width="400.632" height="22.677"/>
	<g>
		<g>
			<path d="M62.341,351.52h13.561v3.542h-9.444v5.934h7.626v3.541h-7.626v6.095h9.955v3.541H62.341V351.52z"/>
			<path d="M85.885,362.687L79.12,351.52h4.69l3.095,5.552c0.734,1.309,1.437,2.776,1.437,2.776h0.063c0,0,0.638-1.437,1.372-2.776
				l3.158-5.552h4.723l-6.828,11.167l7.083,11.486h-4.626l-3.51-6.094c-0.734-1.309-1.404-2.681-1.404-2.681h-0.063
				c0,0-0.638,1.372-1.404,2.681l-3.478,6.094h-4.595L85.885,362.687z"/>
			<path d="M101.833,351.52h8.743c4.243,0,7.21,2.968,7.21,7.37c0,4.403-2.967,7.467-7.21,7.467h-4.627v7.816h-4.116V351.52z
				 M109.809,362.783c2.394,0,3.797-1.531,3.797-3.893c0-2.329-1.403-3.828-3.732-3.828h-3.925v7.721H109.809z"/>
			<path d="M132.044,351.137c6.669,0,11.71,5.073,11.71,11.55c0,6.669-5.041,11.869-11.71,11.869c-6.668,0-11.709-5.2-11.709-11.869
				C120.335,356.21,125.376,351.137,132.044,351.137z M132.044,370.792c4.147,0,7.466-3.446,7.466-8.104
				c0-4.467-3.318-7.785-7.466-7.785c-4.147,0-7.466,3.318-7.466,7.785C124.578,367.345,127.896,370.792,132.044,370.792z"/>
			<path d="M148.406,351.52h4.116l8.583,13.082c0.861,1.308,1.883,3.51,1.883,3.51h0.064c0,0-0.224-2.17-0.224-3.51V351.52h4.084
				v22.653h-4.084l-8.583-13.05c-0.861-1.308-1.882-3.509-1.882-3.509h-0.064c0,0,0.224,2.169,0.224,3.509v13.05h-4.116V351.52z"/>
			<path d="M173.129,351.52h13.561v3.542h-9.444v5.934h7.626v3.541h-7.626v6.095h9.955v3.541h-14.071V351.52z"/>
			<path d="M191.95,351.52h4.116l8.583,13.082c0.861,1.308,1.883,3.51,1.883,3.51h0.063c0,0-0.224-2.17-0.224-3.51V351.52h4.084
				v22.653h-4.084l-8.583-13.05c-0.861-1.308-1.882-3.509-1.882-3.509h-0.064c0,0,0.224,2.169,0.224,3.509v13.05h-4.116V351.52z"/>
			<path d="M221.362,355.062h-7.434v-3.542h18.983v3.542h-7.434v19.111h-4.116V355.062z"/>
			<path d="M236.386,351.52h4.116v22.653h-4.116V351.52z"/>
			<path d="M257.985,368.367h-7.945l-1.914,5.807h-4.243l7.977-22.653h4.307l7.977,22.653h-4.243L257.985,368.367z M253.997,355.445
				c0,0-0.511,2.233-0.958,3.51l-2.01,6.062h5.935l-2.01-6.062c-0.415-1.276-0.894-3.51-0.894-3.51H253.997z"/>
			<path d="M267.519,351.52h4.116v19.112h9.795v3.541h-13.911V351.52z"/>
			<path d="M293.422,351.52h4.116v19.112h9.795v3.541h-13.911V351.52z"/>
			<path d="M311.095,351.52h13.56v3.542h-9.444v5.934h7.626v3.541h-7.626v6.095h9.955v3.541h-14.071V351.52z"/>
			<path d="M341.178,368.367h-7.945l-1.914,5.807h-4.243l7.977-22.653h4.307l7.977,22.653h-4.243L341.178,368.367z M337.19,355.445
				c0,0-0.511,2.233-0.958,3.51l-2.01,6.062h5.935l-2.01-6.062c-0.415-1.276-0.894-3.51-0.894-3.51H337.19z"/>
			<path d="M350.714,351.52h7.307c2.457,0,3.574,0.191,4.562,0.639c2.266,1.021,3.701,3.19,3.701,6.189
				c0,2.712-1.435,5.232-3.828,6.189v0.064c0,0,0.318,0.318,0.766,1.116l4.658,8.455h-4.595l-4.499-8.455h-3.956v8.455h-4.116
				V351.52z M358.531,362.145c2.201,0,3.573-1.309,3.573-3.573c0-2.17-0.925-3.51-4.147-3.51h-3.127v7.083H358.531z"/>
			<path d="M372.182,351.52h4.116l8.583,13.082c0.861,1.308,1.883,3.51,1.883,3.51h0.064c0,0-0.224-2.17-0.224-3.51V351.52h4.084
				v22.653h-4.084l-8.583-13.05c-0.861-1.308-1.882-3.509-1.882-3.509h-0.064c0,0,0.224,2.169,0.224,3.509v13.05h-4.116V351.52z"/>
			<path d="M396.904,351.52h4.116v22.653h-4.116V351.52z"/>
			<path d="M407.24,351.52h4.116l8.583,13.082c0.861,1.308,1.883,3.51,1.883,3.51h0.063c0,0-0.224-2.17-0.224-3.51V351.52h4.084
				v22.653h-4.084l-8.583-13.05c-0.861-1.308-1.882-3.509-1.882-3.509h-0.064c0,0,0.224,2.169,0.224,3.509v13.05h-4.116V351.52z"/>
			<path d="M442.108,351.137c5.552,0,8.423,2.872,8.423,2.872l-2.041,3.062c0,0-2.426-2.17-6.03-2.17
				c-5.073,0-7.785,3.51-7.785,7.785c0,4.914,3.35,8.104,7.593,8.104c3.414,0,5.68-2.361,5.68-2.361v-2.647h-3.478v-3.542h7.179
				v11.933h-3.51v-1.085c0-0.478,0.032-0.957,0.032-0.957h-0.064c0,0-2.36,2.425-6.572,2.425c-5.967,0-11.103-4.626-11.103-11.741
				C430.431,356.243,435.376,351.137,442.108,351.137z"/>
		</g>
	</g>
	<g>
		<g>
			<path fill="#00338D" d="M320.1,130.663l-27.686-45.72h25.272l9.906,18.669c3.048,5.715,5.588,11.684,5.588,11.684h0.254
				c0,0,2.413-5.842,5.588-11.684l10.033-18.669h25.272l-27.812,45.72l27.686,45.085h-24.765l-10.414-19.05
				c-3.175-5.715-5.588-11.303-5.588-11.303h-0.254c0,0-2.413,5.588-5.588,11.303l-10.414,19.05h-24.638L320.1,130.663z"/>
			<path fill="#00338D" d="M388.806,84.944h22.225v71.755h37.084v19.05h-59.309V84.944z"/>
		</g>
	</g>
	<g>
		<g id="XMLID_2_">
			<path fill="#0097DC" d="M85.053,56.693c15.62,0,28.346,12.68,28.346,28.327s-12.727,28.366-28.346,28.366
				c-15.658,0-28.346-12.718-28.346-28.366S69.395,56.693,85.053,56.693z"/>
		</g>
		<g>
			<rect x="62.362" y="130.393" fill="#00338D" width="45.354" height="147.402"/>
			<path fill="#00338D" d="M269.815,204.561l-0.001-0.806c-0.155-42.724-28.723-77.3-75.379-77.3h0
				c-46.656,0-75.223,34.576-75.379,77.3l-0.001,0.806c0,46.923,36.328,77.195,81.737,77.195c23.613,0,47.528-10.595,62.06-29.062
				l-30.902-22.661c-8.153,9.558-18.443,17.213-33.277,17.213c-17.558,0-30.576-11.202-34.208-28.457h104.152
				C269.39,214.237,269.815,209.497,269.815,204.561z M195.613,184.719h-29.137c2.786-11.49,12.135-21.899,29.137-21.899
				s26.351,10.409,29.137,21.899H195.613z"/>
		</g>
	</g>
</g>
</svg>
