<?xml version="1.0" encoding="UTF-8"?>
<svg width="180px" height="180px" viewBox="0 0 180 180" version="1.1" xmlns="http://www.w3.org/2000/svg" xmlns:xlink="http://www.w3.org/1999/xlink" style="background: #000EB7;">
    <!-- Generator: Sketch 48.2 (47327) - http://www.bohemiancoding.com/sketch -->
    <title>open-source-weekends</title>
    <desc>Created with Sketch.</desc>
    <defs></defs>
    <g id="Logos" stroke="none" stroke-width="1" fill="none" fill-rule="evenodd">
        <g id="open-source-weekends" fill="#FFFFFF" fill-rule="nonzero">
            <g id="Open-Source-Weekends-logo" transform="translate(18.000000, 65.000000)">
                <path d="M35.4800885,2.30943396 C29.1822173,-0.342038647 22.081057,-0.342038647 15.7831858,2.30943396 C14.2419043,2.96330385 12.7696542,3.76917529 11.3882743,4.71509434 L39.2975664,4.33018868 C38.0847343,3.54950177 36.80763,2.87347566 35.4800885,2.30943396 Z M35.7688053,25.7566038 C35.7662348,27.0704736 35.4932411,28.3697546 34.9668142,29.5735849 C34.6591113,30.2884635 34.2717041,30.9663379 33.8119469,31.5943396 L50.300885,31.3698113 C50.7095614,29.591302 50.9246763,27.7738172 50.9424779,25.9490566 L35.7688053,25.7566038 Z M35.7688053,25.7566038 C35.7662348,27.0704736 35.4932411,28.3697546 34.9668142,29.5735849 C34.6591113,30.2884635 34.2717041,30.9663379 33.8119469,31.5943396 L50.300885,31.3698113 C50.7095614,29.591302 50.9246763,27.7738172 50.9424779,25.9490566 L35.7688053,25.7566038 Z M50.1084071,19.1490566 L33.2024336,18.9245283 C33.9189987,19.7489681 34.5033748,20.67952 34.9347345,21.6830189 C35.3520678,22.6624501 35.6119124,23.7016935 35.704646,24.7622642 L50.9103982,24.5698113 C50.8550043,22.7378401 50.5858513,20.9186025 50.1084071,19.1490566 Z M35.7688053,25.7566038 C35.7662348,27.0704736 35.4932411,28.3697546 34.9668142,29.5735849 C34.6591113,30.2884635 34.2717041,30.9663379 33.8119469,31.5943396 L50.300885,31.3698113 C50.7095614,29.591302 50.9246763,27.7738172 50.9424779,25.9490566 L35.7688053,25.7566038 Z M50.1084071,19.1490566 L33.2024336,18.9245283 C33.9189987,19.7489681 34.5033748,20.67952 34.9347345,21.6830189 C35.3520678,22.6624501 35.6119124,23.7016935 35.704646,24.7622642 L50.9103982,24.5698113 C50.8550043,22.7378401 50.5858513,20.9186025 50.1084071,19.1490566 Z M35.7688053,25.7566038 C35.7662348,27.0704736 35.4932411,28.3697546 34.9668142,29.5735849 C34.6591113,30.2884635 34.2717041,30.9663379 33.8119469,31.5943396 L50.300885,31.3698113 C50.7095614,29.591302 50.9246763,27.7738172 50.9424779,25.9490566 L35.7688053,25.7566038 Z M50.1084071,19.1490566 L33.2024336,18.9245283 C33.9189987,19.7489681 34.5033748,20.67952 34.9347345,21.6830189 C35.3520678,22.6624501 35.6119124,23.7016935 35.704646,24.7622642 L50.9103982,24.5698113 C50.8550043,22.7378401 50.5858513,20.9186025 50.1084071,19.1490566 Z M35.7688053,25.7566038 C35.7662348,27.0704736 35.4932411,28.3697546 34.9668142,29.5735849 C34.6591113,30.2884635 34.2717041,30.9663379 33.8119469,31.5943396 L50.300885,31.3698113 C50.7095614,29.591302 50.9246763,27.7738172 50.9424779,25.9490566 L35.7688053,25.7566038 Z M50.1084071,19.1490566 L33.2024336,18.9245283 C33.9189987,19.7489681 34.5033748,20.67952 34.9347345,21.6830189 C35.3520678,22.6624501 35.6119124,23.7016935 35.704646,24.7622642 L50.9103982,24.5698113 C50.8550043,22.7378401 50.5858513,20.9186025 50.1084071,19.1490566 Z M35.7688053,25.7566038 C35.7662348,27.0704736 35.4932411,28.3697546 34.9668142,29.5735849 C34.6591113,30.2884635 34.2717041,30.9663379 33.8119469,31.5943396 L50.300885,31.3698113 C50.7095614,29.591302 50.9246763,27.7738172 50.9424779,25.9490566 L35.7688053,25.7566038 Z M50.1084071,19.1490566 L33.2024336,18.9245283 C33.9189987,19.7489681 34.5033748,20.67952 34.9347345,21.6830189 C35.3520678,22.6624501 35.6119124,23.7016935 35.704646,24.7622642 L50.9103982,24.5698113 C50.8550043,22.7378401 50.5858513,20.9186025 50.1084071,19.1490566 Z M35.7688053,25.7566038 C35.7662348,27.0704736 35.4932411,28.3697546 34.9668142,29.5735849 C34.6591113,30.2884635 34.2717041,30.9663379 33.8119469,31.5943396 L50.300885,31.3698113 C50.7095614,29.591302 50.9246763,27.7738172 50.9424779,25.9490566 L35.7688053,25.7566038 Z M50.1084071,19.1490566 L33.2024336,18.9245283 C33.9189987,19.7489681 34.5033748,20.67952 34.9347345,21.6830189 C35.3520678,22.6624501 35.6119124,23.7016935 35.704646,24.7622642 L50.9103982,24.5698113 C50.8550043,22.7378401 50.5858513,20.9186025 50.1084071,19.1490566 Z M35.7688053,25.7566038 C35.7662348,27.0704736 35.4932411,28.3697546 34.9668142,29.5735849 C34.6591113,30.2884635 34.2717041,30.9663379 33.8119469,31.5943396 L50.300885,31.3698113 C50.7095614,29.591302 50.9246763,27.7738172 50.9424779,25.9490566 L35.7688053,25.7566038 Z M50.1084071,19.1490566 L33.2024336,18.9245283 C33.9189987,19.7489681 34.5033748,20.67952 34.9347345,21.6830189 C35.3520678,22.6624501 35.6119124,23.7016935 35.704646,24.7622642 L50.9103982,24.5698113 C50.8550043,22.7378401 50.5858513,20.9186025 50.1084071,19.1490566 Z M35.7688053,25.7566038 C35.7662348,27.0704736 35.4932411,28.3697546 34.9668142,29.5735849 C34.6591113,30.2884635 34.2717041,30.9663379 33.8119469,31.5943396 L50.300885,31.3698113 C50.7095614,29.591302 50.9246763,27.7738172 50.9424779,25.9490566 L35.7688053,25.7566038 Z M50.1084071,19.1490566 L33.2024336,18.9245283 C33.9189987,19.7489681 34.5033748,20.67952 34.9347345,21.6830189 C35.3520678,22.6624501 35.6119124,23.7016935 35.704646,24.7622642 L50.9103982,24.5698113 C50.8550043,22.7378401 50.5858513,20.9186025 50.1084071,19.1490566 Z M35.7688053,25.7566038 C35.7662348,27.0704736 35.4932411,28.3697546 34.9668142,29.5735849 C34.6591113,30.2884635 34.2717041,30.9663379 33.8119469,31.5943396 L50.300885,31.3698113 C50.7095614,29.591302 50.9246763,27.7738172 50.9424779,25.9490566 L35.7688053,25.7566038 Z M50.1084071,19.1490566 L33.2024336,18.9245283 C33.9189987,19.7489681 34.5033748,20.67952 34.9347345,21.6830189 C35.3520678,22.6624501 35.6119124,23.7016935 35.704646,24.7622642 L50.9103982,24.5698113 C50.8550043,22.7378401 50.5858513,20.9186025 50.1084071,19.1490566 Z M35.7688053,25.7566038 C35.7662348,27.0704736 35.4932411,28.3697546 34.9668142,29.5735849 C34.6591113,30.2884635 34.2717041,30.9663379 33.8119469,31.5943396 L50.300885,31.3698113 C50.7095614,29.591302 50.9246763,27.7738172 50.9424779,25.9490566 L35.7688053,25.7566038 Z M50.1084071,19.1490566 L33.2024336,18.9245283 C33.9189987,19.7489681 34.5033748,20.67952 34.9347345,21.6830189 C35.3520678,22.6624501 35.6119124,23.7016935 35.704646,24.7622642 L50.9103982,24.5698113 C50.8550043,22.7378401 50.5858513,20.9186025 50.1084071,19.1490566 Z M35.7688053,25.7566038 C35.7662348,27.0704736 35.4932411,28.3697546 34.9668142,29.5735849 C34.6591113,30.2884635 34.2717041,30.9663379 33.8119469,31.5943396 L50.300885,31.3698113 C50.7095614,29.591302 50.9246763,27.7738172 50.9424779,25.9490566 L35.7688053,25.7566038 Z M50.1084071,19.1490566 L33.2024336,18.9245283 C33.9189987,19.7489681 34.5033748,20.67952 34.9347345,21.6830189 C35.3520678,22.6624501 35.6119124,23.7016935 35.704646,24.7622642 L50.9103982,24.5698113 C50.8550043,22.7378401 50.5858513,20.9186025 50.1084071,19.1490566 Z M33.0420354,32.5245283 L32.7853982,32.7811321 C31.8604737,33.7006354 30.7726789,34.4402396 29.5774336,34.9622642 C27.0555586,36.0313728 24.2077158,36.0313728 21.6858407,34.9622642 C20.4798731,34.4598528 19.3885001,33.7178157 18.4778761,32.7811321 C18.3174779,32.6207547 18.1891593,32.4603774 18.0287611,32.3 L1.12278761,32.0754717 C1.4110852,33.228958 1.79744675,34.3556992 2.27765487,35.4433962 C2.76681497,36.5932023 3.33491043,37.7078107 3.97787611,38.7792453 L47.5420354,38.2018868 C48.0591413,37.3121682 48.5198562,36.3908583 48.9214602,35.4433962 C49.2988459,34.5665072 49.6202863,33.6665913 49.8838496,32.7490566 L33.0420354,32.5245283 Z M16.2964602,29.5735849 C15.7514656,28.3305132 15.4780468,26.9854679 15.494469,25.6283019 L15.494469,25.5 L0.32079646,25.2754717 L0.32079646,25.6283019 C0.308612984,27.792402 0.578208129,29.9488825 1.12278761,32.0433962 L17.6117257,31.8188679 C17.0871122,31.1243667 16.6456815,30.3708025 16.2964602,29.5735849 Z M48.9535398,15.7811321 C48.4450456,14.581782 47.8444302,13.423603 47.1570796,12.3169811 L4.49115044,11.7396226 C3.65712781,13.0263195 2.92765084,14.3778216 2.30973451,15.7811321 C1.92744921,16.6451122 1.60587309,17.5346904 1.34734513,18.4433962 L18.7345133,18.2188679 C19.5991611,17.4110025 20.5978398,16.759775 21.6858407,16.2943396 C24.2077158,15.2252309 27.0555586,15.2252309 29.5774336,16.2943396 C30.5711607,16.7259334 31.491215,17.3103624 32.3042035,18.0264151 L49.6913717,17.8018868 C49.4881379,17.1134696 49.2417053,16.4385464 48.9535398,15.7811321 Z M0.32079646,25.2433962 L15.5265487,25.0509434 C15.584672,23.891983 15.8452413,22.7521406 16.2964602,21.6830189 C16.7619562,20.5951596 17.4132684,19.5966108 18.2212389,18.7320755 L1.31526549,18.5075472 C0.688702103,20.6992768 0.354322487,22.9641343 0.32079646,25.2433962 Z M50.1084071,19.1490566 L33.2024336,18.9245283 C33.9189987,19.7489681 34.5033748,20.67952 34.9347345,21.6830189 C35.3520678,22.6624501 35.6119124,23.7016935 35.704646,24.7622642 L50.9103982,24.5698113 C50.8550043,22.7378401 50.5858513,20.9186025 50.1084071,19.1490566 Z M35.7688053,25.7566038 C35.7662348,27.0704736 35.4932411,28.3697546 34.9668142,29.5735849 C34.6591113,30.2884635 34.2717041,30.9663379 33.8119469,31.5943396 L50.300885,31.3698113 C50.7095614,29.591302 50.9246763,27.7738172 50.9424779,25.9490566 L35.7688053,25.7566038 Z M50.1084071,19.1490566 L33.2024336,18.9245283 C33.9189987,19.7489681 34.5033748,20.67952 34.9347345,21.6830189 C35.3520678,22.6624501 35.6119124,23.7016935 35.704646,24.7622642 L50.9103982,24.5698113 C50.8550043,22.7378401 50.5858513,20.9186025 50.1084071,19.1490566 Z M35.7688053,25.7566038 C35.7662348,27.0704736 35.4932411,28.3697546 34.9668142,29.5735849 C34.6591113,30.2884635 34.2717041,30.9663379 33.8119469,31.5943396 L50.300885,31.3698113 C50.7095614,29.591302 50.9246763,27.7738172 50.9424779,25.9490566 L35.7688053,25.7566038 Z M50.1084071,19.1490566 L33.2024336,18.9245283 C33.9189987,19.7489681 34.5033748,20.67952 34.9347345,21.6830189 C35.3520678,22.6624501 35.6119124,23.7016935 35.704646,24.7622642 L50.9103982,24.5698113 C50.8550043,22.7378401 50.5858513,20.9186025 50.1084071,19.1490566 Z M35.7688053,25.7566038 C35.7662348,27.0704736 35.4932411,28.3697546 34.9668142,29.5735849 C34.6591113,30.2884635 34.2717041,30.9663379 33.8119469,31.5943396 L50.300885,31.3698113 C50.7095614,29.591302 50.9246763,27.7738172 50.9424779,25.9490566 L35.7688053,25.7566038 Z M50.1084071,19.1490566 L33.2024336,18.9245283 C33.9189987,19.7489681 34.5033748,20.67952 34.9347345,21.6830189 C35.3520678,22.6624501 35.6119124,23.7016935 35.704646,24.7622642 L50.9103982,24.5698113 C50.8550043,22.7378401 50.5858513,20.9186025 50.1084071,19.1490566 Z M35.7688053,25.7566038 C35.7662348,27.0704736 35.4932411,28.3697546 34.9668142,29.5735849 C34.6591113,30.2884635 34.2717041,30.9663379 33.8119469,31.5943396 L50.300885,31.3698113 C50.7095614,29.591302 50.9246763,27.7738172 50.9424779,25.9490566 L35.7688053,25.7566038 Z M50.1084071,19.1490566 L33.2024336,18.9245283 C33.9189987,19.7489681 34.5033748,20.67952 34.9347345,21.6830189 C35.3520678,22.6624501 35.6119124,23.7016935 35.704646,24.7622642 L50.9103982,24.5698113 C50.8550043,22.7378401 50.5858513,20.9186025 50.1084071,19.1490566 Z M35.7688053,25.7566038 C35.7662348,27.0704736 35.4932411,28.3697546 34.9668142,29.5735849 C34.6591113,30.2884635 34.2717041,30.9663379 33.8119469,31.5943396 L50.300885,31.3698113 C50.7095614,29.591302 50.9246763,27.7738172 50.9424779,25.9490566 L35.7688053,25.7566038 Z M50.1084071,19.1490566 L33.2024336,18.9245283 C33.9189987,19.7489681 34.5033748,20.67952 34.9347345,21.6830189 C35.3520678,22.6624501 35.6119124,23.7016935 35.704646,24.7622642 L50.9103982,24.5698113 C50.8550043,22.7378401 50.5858513,20.9186025 50.1084071,19.1490566 Z M35.7688053,25.7566038 C35.7662348,27.0704736 35.4932411,28.3697546 34.9668142,29.5735849 C34.6591113,30.2884635 34.2717041,30.9663379 33.8119469,31.5943396 L50.300885,31.3698113 C50.7095614,29.591302 50.9246763,27.7738172 50.9424779,25.9490566 L35.7688053,25.7566038 Z M50.1084071,19.1490566 L33.2024336,18.9245283 C33.9189987,19.7489681 34.5033748,20.67952 34.9347345,21.6830189 C35.3520678,22.6624501 35.6119124,23.7016935 35.704646,24.7622642 L50.9103982,24.5698113 C50.8550043,22.7378401 50.5858513,20.9186025 50.1084071,19.1490566 Z M35.7688053,25.7566038 C35.7662348,27.0704736 35.4932411,28.3697546 34.9668142,29.5735849 C34.6591113,30.2884635 34.2717041,30.9663379 33.8119469,31.5943396 L50.300885,31.3698113 C50.7095614,29.591302 50.9246763,27.7738172 50.9424779,25.9490566 L35.7688053,25.7566038 Z M50.1084071,19.1490566 L33.2024336,18.9245283 C33.9189987,19.7489681 34.5033748,20.67952 34.9347345,21.6830189 C35.3520678,22.6624501 35.6119124,23.7016935 35.704646,24.7622642 L50.9103982,24.5698113 C50.8550043,22.7378401 50.5858513,20.9186025 50.1084071,19.1490566 Z M35.7688053,25.7566038 C35.7662348,27.0704736 35.4932411,28.3697546 34.9668142,29.5735849 C34.6591113,30.2884635 34.2717041,30.9663379 33.8119469,31.5943396 L50.300885,31.3698113 C50.7095614,29.591302 50.9246763,27.7738172 50.9424779,25.9490566 L35.7688053,25.7566038 Z M50.1084071,19.1490566 L33.2024336,18.9245283 C33.9189987,19.7489681 34.5033748,20.67952 34.9347345,21.6830189 C35.3520678,22.6624501 35.6119124,23.7016935 35.704646,24.7622642 L50.9103982,24.5698113 C50.8550043,22.7378401 50.5858513,20.9186025 50.1084071,19.1490566 Z M35.7688053,25.7566038 C35.7662348,27.0704736 35.4932411,28.3697546 34.9668142,29.5735849 C34.6591113,30.2884635 34.2717041,30.9663379 33.8119469,31.5943396 L50.300885,31.3698113 C50.7095614,29.591302 50.9246763,27.7738172 50.9424779,25.9490566 L35.7688053,25.7566038 Z M50.1084071,19.1490566 L33.2024336,18.9245283 C33.9189987,19.7489681 34.5033748,20.67952 34.9347345,21.6830189 C35.3520678,22.6624501 35.6119124,23.7016935 35.704646,24.7622642 L50.9103982,24.5698113 C50.8550043,22.7378401 50.5858513,20.9186025 50.1084071,19.1490566 Z M35.7688053,25.7566038 C35.7662348,27.0704736 35.4932411,28.3697546 34.9668142,29.5735849 C34.6591113,30.2884635 34.2717041,30.9663379 33.8119469,31.5943396 L50.300885,31.3698113 C50.7095614,29.591302 50.9246763,27.7738172 50.9424779,25.9490566 L35.7688053,25.7566038 Z M50.1084071,19.1490566 L33.2024336,18.9245283 C33.9189987,19.7489681 34.5033748,20.67952 34.9347345,21.6830189 C35.3520678,22.6624501 35.6119124,23.7016935 35.704646,24.7622642 L50.9103982,24.5698113 C50.8550043,22.7378401 50.5858513,20.9186025 50.1084071,19.1490566 Z M35.7688053,25.7566038 C35.7662348,27.0704736 35.4932411,28.3697546 34.9668142,29.5735849 C34.6591113,30.2884635 34.2717041,30.9663379 33.8119469,31.5943396 L50.300885,31.3698113 C50.7095614,29.591302 50.9246763,27.7738172 50.9424779,25.9490566 L35.7688053,25.7566038 Z M10.3617257,45.8037736 C12.0386552,47.0615596 13.8584412,48.1166828 15.7831858,48.9471698 C22.081057,51.5986424 29.1822173,51.5986424 35.4800885,48.9471698 C37.1995493,48.2178943 38.8345405,47.303709 40.3561947,46.2207547 L10.3617257,45.8037736 Z M4.10619469,38.9396226 C5.13154582,40.6046349 6.34814418,42.1440236 7.73119469,43.5264151 C8.43382201,44.2393821 9.18407397,44.9038045 9.97676991,45.5150943 L41.7997788,45.0981132 C42.409292,44.6169811 42.954646,44.0716981 43.5320796,43.5264151 C44.7521506,42.3009136 45.848179,40.9579164 46.8042035,39.5169811 L4.10619469,38.9396226 Z M50.1084071,19.1490566 L33.2024336,18.9245283 C33.9189987,19.7489681 34.5033748,20.67952 34.9347345,21.6830189 C35.3520678,22.6624501 35.6119124,23.7016935 35.704646,24.7622642 L50.9103982,24.5698113 C50.8550043,22.7378401 50.5858513,20.9186025 50.1084071,19.1490566 Z M35.7688053,25.7566038 C35.7662348,27.0704736 35.4932411,28.3697546 34.9668142,29.5735849 C34.6591113,30.2884635 34.2717041,30.9663379 33.8119469,31.5943396 L50.300885,31.3698113 C50.7095614,29.591302 50.9246763,27.7738172 50.9424779,25.9490566 L35.7688053,25.7566038 Z M50.1084071,19.1490566 L33.2024336,18.9245283 C33.9189987,19.7489681 34.5033748,20.67952 34.9347345,21.6830189 C35.3520678,22.6624501 35.6119124,23.7016935 35.704646,24.7622642 L50.9103982,24.5698113 C50.8550043,22.7378401 50.5858513,20.9186025 50.1084071,19.1490566 Z M35.7688053,25.7566038 C35.7662348,27.0704736 35.4932411,28.3697546 34.9668142,29.5735849 C34.6591113,30.2884635 34.2717041,30.9663379 33.8119469,31.5943396 L50.300885,31.3698113 C50.7095614,29.591302 50.9246763,27.7738172 50.9424779,25.9490566 L35.7688053,25.7566038 Z M43.5320796,7.73018868 C42.7169291,6.90262219 41.8373189,6.14110759 40.9015487,5.45283019 L10.9070796,5.03584906 C9.76955567,5.83662273 8.70661762,6.7383922 7.73119469,7.73018868 C6.54341649,8.91263395 5.47928749,10.2130668 4.55530973,11.6113208 L46.2909292,11.0339623 C45.4790366,9.84706791 44.5551924,8.74074739 43.5320796,7.73018868 Z M35.7688053,25.7566038 C35.7662348,27.0704736 35.4932411,28.3697546 34.9668142,29.5735849 C34.6591113,30.2884635 34.2717041,30.9663379 33.8119469,31.5943396 L50.300885,31.3698113 C50.7095614,29.591302 50.9246763,27.7738172 50.9424779,25.9490566 L35.7688053,25.7566038 Z" id="Shape"></path>
                <path d="M52.1935841,46.3811321 L52.1935841,49.2037736 C53.4492084,49.5623164 54.7236314,49.8514336 56.0110619,50.0698113 C57.3896185,50.3454239 58.7816331,50.5488457 60.1814159,50.6792453 C61.8761809,50.8512641 63.5786051,50.9369096 65.2820796,50.9358491 C68.329646,50.9358491 70.960177,50.5509434 73.1736726,49.7490566 C75.0893689,49.0997992 76.8561852,48.0747428 78.3705752,46.7339623 L52.1935841,46.3811321 Z M81.8030973,30.1830189 C81.2831152,28.8411617 80.6160679,27.5610279 79.8141593,26.3660377 L57.7112832,26.0773585 C58.0962389,26.4622642 58.5132743,26.8150943 58.9303097,27.1679245 C60.1172566,28.1301887 61.2079646,29.0283019 62.2665929,29.7981132 C62.9081858,30.3113208 63.4856195,30.7603774 63.9988938,31.209434 L82.0597345,30.9528302 C81.9886956,30.6916171 81.9030145,30.4346072 81.8030973,30.1830189 Z M52.1294248,12.3811321 C52.0636715,12.988327 52.0315428,13.5986924 52.0331858,14.209434 C52.0255885,15.4070064 52.1547432,16.6015319 52.4181416,17.7698113 L70.6714602,17.5132075 C70.0940265,16.9679245 69.8053097,16.5188679 69.8053097,16.1660377 C69.7898157,15.7731666 69.9553367,15.394882 70.2544248,15.1396226 C70.5498366,14.887721 70.9021788,14.7115728 71.2809735,14.6264151 C71.6812804,14.5286018 72.0890265,14.4642292 72.5,14.4339623 C72.9170354,14.4018868 73.3019912,14.4018868 73.590708,14.4018868 C74.1360619,14.4018868 74.6172566,14.4339623 75.0984513,14.4660377 C75.579646,14.4981132 75.9966814,14.5622642 76.3816372,14.6264151 C76.8628319,14.690566 77.3119469,14.7226415 77.6969027,14.7867925 L77.6969027,12.7339623 L52.1294248,12.3811321 Z M74.585177,0.833962264 C73.6548673,0.737735849 72.6283186,0.641509434 71.4734513,0.513207547 C70.3230229,0.385155363 69.1663845,0.320906039 68.0088496,0.320754717 C65.8902172,0.301655303 63.780977,0.604481159 61.7533186,1.21886792 C59.9030447,1.76768094 58.1726749,2.65995679 56.6526549,3.8490566 C56.5486472,3.92543119 56.4519898,4.01133774 56.3639381,4.10566038 L77.6969027,3.81698113 L77.6969027,1.2509434 C76.7024336,1.12264151 75.6438053,0.962264151 74.585177,0.833962264 Z M54.8882743,5.61320755 C54.2393092,6.39157944 53.6996652,7.25489742 53.284292,8.17924528 C52.8657363,9.05559546 52.5637589,9.98297677 52.3860619,10.9377358 L77.7289823,10.5849057 L77.7289823,5.90188679 L54.8882743,5.61320755 Z M76.2853982,22.2924528 C75.1626106,21.2660377 74.1039823,20.4 73.1736726,19.6301887 C73.1095133,19.5660377 73.045354,19.5339623 72.9811947,19.4698113 L52.8672566,19.2132075 C52.9314159,19.3415094 52.9634956,19.4698113 53.0276549,19.5981132 C53.6786261,21.1236452 54.5426867,22.5491595 55.5940265,23.8320755 L56.1714602,24.5056604 L78.1460177,24.2169811 C77.5756353,23.5291185 76.9536258,22.8857441 76.2853982,22.2924528 Z M82.6050885,33.1981132 L65.6349558,32.9735849 C65.784168,33.2493052 65.8614035,33.5582071 65.8595133,33.8716981 C65.8595133,35.5075472 64.7367257,36.3415094 62.5232301,36.3415094 C61.2792549,36.3476139 60.0362052,36.272612 58.8019912,36.1169811 C57.6896675,35.9933224 56.5861289,35.8004961 55.4977876,35.5396226 C54.3665278,35.3594913 53.2510484,35.0913822 52.1615044,34.7377358 L52.1615044,38.1377358 L82.6371681,37.7207547 C82.7013274,37.0471698 82.7654867,36.3735849 82.7654867,35.6679245 C82.7620717,34.8421667 82.708507,34.0173782 82.6050885,33.1981132 Z M52.1935841,39.5811321 L52.1935841,44.9377358 L80.2632743,44.5528302 C80.885235,43.6463143 81.391723,42.6657948 81.7710177,41.6339623 C81.9634956,41.0886792 82.1238938,40.5433962 82.284292,39.9660377 L52.1935841,39.5811321 Z" id="Shape"></path>
                <path d="M117.186947,1.4754717 L106.632743,1.4754717 L105.99115,3.43207547 L117.79646,3.27169811 L117.186947,1.4754717 Z M99.3185841,13.0226415 L82.8938053,12.7981132 L84.369469,17.3207547 L100.665929,17.0962264 L99.3185841,13.0226415 Z M118.855088,6.47924528 L105.028761,6.28679245 L103.713496,10.2320755 L120.009956,10.0075472 L118.855088,6.47924528 Z M121.100664,13.3113208 L102.783186,13.054717 L101.46792,17.0641509 L122.255531,16.7754717 L121.100664,13.3113208 Z M85.1393805,19.6301887 L86.6150442,24.0886792 L137.461283,23.4150943 L138.455752,20.3679245 L85.1393805,19.6301887 Z M113.690265,40.4150943 L114.909292,44.1037736 L130.692478,43.8792453 L131.751106,40.6396226 L113.690265,40.4150943 Z M89.6626106,33.2943396 L91.074115,37.6245283 L111.155973,37.3679245 L111.893805,35.1226415 L112.631637,37.3679245 L132.905973,37.0792453 L133.932522,33.9037736 L89.6626106,33.2943396 Z M115.935841,47.2471698 L116.737832,49.7169811 L128.735619,49.7169811 L129.473451,47.4396226 L115.935841,47.2471698 Z M94.1537611,46.9584906 L95.0519912,49.7169811 L107.049779,49.7169811 L107.915929,47.1509434 L94.1537611,46.9584906 Z M91.9081858,40.1264151 L93.3196903,44.3924528 L108.910398,44.1679245 L110.161504,40.3509434 L91.9081858,40.1264151 Z M87.3849558,26.4622642 L88.8285398,30.8566038 L135.183628,30.2150943 L136.210177,27.1037736 L87.3849558,26.4622642 Z M128.318584,1.4754717 L127.77323,3.14339623 L144.198009,2.91886792 L144.679204,1.4754717 L128.318584,1.4754717 Z M125.527655,9.9754717 L141.952434,9.7509434 L142.914823,6.83207547 L126.650442,6.60754717 L125.527655,9.9754717 Z M124.404867,13.3754717 L123.28208,16.8075472 L139.706858,16.5830189 L140.701327,13.6 L124.404867,13.3754717 Z M97.0730088,6.19056604 L80.6482301,5.96603774 L82.1559735,10.5528302 L98.420354,10.3283019 L97.0730088,6.19056604 Z M95.5011062,1.4754717 L79.1404867,1.4754717 L79.9103982,3.78490566 L96.1747788,3.56037736 L95.5011062,1.4754717 Z" id="Shape"></path>
            </g>
        </g>
    </g>
</svg>