<?xml version="1.0" encoding="UTF-8"?>
<svg width="180px" height="180px" viewBox="0 0 180 180" version="1.1" xmlns="http://www.w3.org/2000/svg" xmlns:xlink="http://www.w3.org/1999/xlink" style="background: #FFFFFF;">
    <!-- Generator: Sketch 48.2 (47327) - http://www.bohemiancoding.com/sketch -->
    <title>pyladies</title>
    <desc>Created with Sketch.</desc>
    <defs></defs>
    <g id="Logos" stroke="none" stroke-width="1" fill="none" fill-rule="evenodd">
        <g id="pyladies">
            <g>
                <rect id="Rectangle-5" fill="#FFFFFF" x="0" y="0" width="180" height="180.000003"></rect>
                <g id="g910" transform="translate(36.000000, 17.000000)" fill-rule="nonzero">
                    <path d="M105.117978,50.7684832 C105.117978,78.5842679 82.1874115,101.13477 53.9051954,101.13477 C25.6206094,101.13477 2.69004458,78.5842679 2.69004458,50.7684832 C2.69004458,22.9550334 25.6206094,0.404532205 53.9051954,0.404532205 C82.1874115,0.404532205 105.117978,22.9550334 105.117978,50.7684832" id="path2" fill="#00376F"></path>
                    <path d="M55.5832193,39.8719878 C54.9338135,39.8463482 54.3128511,39.8486812 53.6847789,39.8440211 C53.0567068,39.8486753 52.4357444,39.8463482 51.7863416,39.8719878 C19.4275806,41.1259591 14.6494907,64.4106639 14.6494907,64.4106639 C14.6494907,64.4106639 24.0326545,91.6344213 31.861043,97.8786353 C36.366573,101.472732 47.8259306,107.358004 53.6847789,107.807851 C59.5436279,107.358004 71.0006137,101.472732 75.5061431,97.8786353 C83.3345353,91.6344213 92.7176966,64.4106639 92.7176966,64.4106639 C92.7176966,64.4106639 87.9396067,41.1259591 55.5832193,39.8719878" id="path4" fill="#FFFFFF"></path>
                    <path d="M44.4675214,81.6982182 C44.4675214,81.6982182 40.7891506,86.7560552 36.2504391,86.7560552 C31.7117275,86.7560552 28.0333567,81.6982182 28.0333567,81.6982182 C28.0333567,81.6982182 31.7117275,77.0599225 36.2504391,77.0599225 C40.7891506,77.0599225 44.4675214,81.6982182 44.4675214,81.6982182" id="path6" fill="#FFFFFF"></path>
                    <path d="M0,70.9089405 C19.3967697,72.0067456 25.6514222,55.6841445 25.6514222,55.6841445 C25.6514222,55.6841445 38.6134129,65.4525358 58.4510198,70.9625467 C84.2849353,78.1367541 107.808021,60.3643932 107.808021,60.3643932 C107.808021,60.3643932 88.3472582,52.8731968 82.5998076,22.6636834 C63.5822515,17.0604374 36.6675739,26.8358171 21.0890101,34.177841 C5.51281631,41.5198643 11.3171525,65.8068176 0,70.9089405" id="path8" fill="#00376F"></path>
                    <path d="M62.8996672,81.6982182 C62.8996672,81.6982182 66.578038,86.7560552 71.1167501,86.7560552 C75.6554622,86.7560552 79.333833,81.6982182 79.333833,81.6982182 C79.333833,81.6982182 75.6554622,77.0599225 71.1167501,77.0599225 C66.578038,77.0599225 62.8996672,81.6982182 62.8996672,81.6982182" id="path10" fill="#FFFFFF"></path>
                    <path d="M66.0779494,79.7380122 C66.0779494,79.3557638 66.1277022,78.9828357 66.2130465,78.6238878 C67.3886083,77.3209722 69.1116573,76.4958701 71.0409074,76.4958701 C73.0791769,76.4958701 74.8922906,77.4188644 76.0678524,78.8499777 C76.1223378,79.1389941 76.1531784,79.4350096 76.1531784,79.7380122 C76.1531784,82.4743743 73.8992245,84.6909639 71.1167501,84.6909639 C68.3342697,84.6909639 66.0779494,82.4743743 66.0779494,79.7380122" id="path12" fill="#211E1E"></path>
                    <path d="M79.511584,82.0827997 C79.511584,82.0827997 77.0158861,78.2649459 71.9083598,77.3069859 C66.8008274,76.3513589 62.8996672,81.6982182 62.8996672,81.6982182 C62.8996672,81.6982182 66.0779494,76.2348204 69.6923272,75.3141532 C70.8489283,75.0204707 72.2875672,75.1603218 72.2875672,75.1603218 C72.2875672,75.1603218 74.392202,74.3072471 74.7097948,74.5007043 C75.02976,74.6918285 74.3092544,75.6474555 74.3092544,75.6474555 C74.3092544,75.6474555 76.6864436,74.7081419 76.838129,75.0367841 C76.9921867,75.3654323 76.1531784,76.5168436 76.1531784,76.5168436 C76.1531784,76.5168436 79.1086712,74.7477677 79.333833,75.213928 C79.5589888,75.6800882 78.0279128,77.2510467 78.0279128,77.2510467 C78.0279128,77.2510467 82.8628847,75.0088175 83.0785631,75.8782056 C83.2989802,76.7452666 79.7154128,79.3347844 79.7154128,79.3347844 C79.7154128,79.3347844 85.8871153,76.9387178 86.0388007,77.8430717 C86.1904861,78.7450924 79.4475971,82.4860275 79.4475971,82.4860275 L79.511584,82.0827997 Z" id="path14" fill="#211E1E"></path>
                    <path d="M69.5856742,79.7636518 C69.5856742,80.4745484 69.0002656,81.0525871 68.27976,81.0525871 C67.556882,81.0525871 66.9714735,80.4745484 66.9714735,79.7636518 C66.9714735,79.0550882 67.556882,78.4793826 68.27976,78.4793826 C69.0002656,78.4793826 69.5856742,79.0550882 69.5856742,79.7636518" id="path16" fill="#FFFFFF"></path>
                    <path d="M27.8556003,82.0827997 C27.8556003,82.0827997 30.3512995,78.2649459 35.4588306,77.3069859 C40.5663624,76.3513589 44.4698913,81.6982182 44.4698913,81.6982182 C44.4698913,81.6982182 41.286868,76.2348204 37.6748596,75.3141532 C36.5182584,75.0204707 35.0796171,75.1603218 35.0796171,75.1603218 C35.0796171,75.1603218 32.9773528,74.3072471 32.6573913,74.5007043 C32.3374298,74.6918285 33.0579354,75.6474555 33.0579354,75.6474555 C33.0579354,75.6474555 30.6807407,74.7081419 30.5290553,75.0367841 C30.375,75.3654323 31.2140101,76.5168436 31.2140101,76.5168436 C31.2140101,76.5168436 28.256145,74.7477677 28.0333567,75.213928 C27.8081986,75.6800882 29.3392733,77.2510467 29.3392733,77.2510467 C29.3392733,77.2510467 24.5066713,75.0088175 24.2886236,75.8782056 C24.0705758,76.7452666 27.6517733,79.3347844 27.6517733,79.3347844 C27.6517733,79.3347844 21.4824438,76.9387178 21.3307584,77.8430717 C21.1767031,78.7450924 27.9195927,82.4860275 27.9195927,82.4860275 L27.8556003,82.0827997 Z" id="path18" fill="#211E1E"></path>
                    <path d="M41.286868,79.7380122 C41.286868,79.3557638 41.2394633,78.9828357 41.1541433,78.6238878 C39.9785815,77.3209722 38.2531601,76.4958701 36.3262818,76.4958701 C34.2880093,76.4958701 32.474895,77.4188644 31.2993332,78.8499777 C31.2448235,79.1389941 31.2140101,79.4350096 31.2140101,79.7380122 C31.2140101,82.4743743 33.4679598,84.6909639 36.2504391,84.6909639 C39.0329177,84.6909639 41.286868,82.4743743 41.286868,79.7380122" id="path20" fill="#211E1E"></path>
                    <path d="M34.6909233,79.7659848 C34.6909233,80.4768755 34.1055129,81.0525871 33.3850073,81.0525871 C32.6621312,81.0525871 32.0767208,80.4768755 32.0767208,79.7659848 C32.0767208,79.0550882 32.6621312,78.4793826 33.3850073,78.4793826 C34.1055129,78.4793826 34.6909233,79.0550882 34.6909233,79.7659848" id="path22" fill="#FFFFFF"></path>
                    <path d="M51.6939082,89.3834617 C52.2485076,88.9098416 52.9050214,88.6358128 53.6136761,88.6358128 C54.3199615,88.6358128 54.9764747,88.9098416 55.5334422,89.3834617 C55.9482108,89.4748046 56.3440126,89.5898342 56.7066378,89.7285331 C56.0596025,88.3245782 54.9195927,87.3807069 53.6136761,87.3807069 C52.3053896,87.3807069 51.1653792,88.3245782 50.5183464,89.7285331 C50.8809691,89.5898342 51.2767733,89.4748046 51.6939082,89.3834617" id="path24" fill="#211E1E"></path>
                    <path d="M28.7941536,89.4271518 C28.6851301,89.4155165 26.1325495,88.6463357 23.9947331,86.4413993 C21.122191,83.4766202 21.2904671,81.2716779 21.1316713,80.6283798 L21.7597435,81.8310702 C21.7644761,81.8590547 22.520541,84.1385648 24.5232621,85.8540344 C26.6492275,87.6767224 28.8771067,88.5670899 28.9008079,88.57175 L28.7941536,89.4271518 Z" id="path26" fill="#211E1E"></path>
                    <path d="M78.5517007,89.4271518 C78.6607261,89.4155165 81.2133061,88.6463357 83.3511236,86.4413993 C86.2236627,83.4766202 86.055389,81.2716779 86.2141854,80.6283798 L85.5861108,81.8310702 C85.5812569,81.8590547 84.8253175,84.1385648 82.8225971,85.8540344 C80.6990016,87.6767224 78.468747,88.5670899 78.4450476,88.57175 L78.5517007,89.4271518 Z" id="path28" fill="#211E1E"></path>
                    <path d="M51.295734,88.2897209 C50.798016,86.8772539 40.78678,86.835301 39.6467697,86.835301 C32.1051618,86.835301 28.1779317,87.4273259 27.9693643,88.6509958 C27.9693643,92.5177956 33.3304952,97.2423303 39.5851478,97.2423303 C45.7592171,97.2423303 51.0610955,92.6436604 51.2009306,88.8071602 C51.3715767,88.5903965 51.3289149,88.3806258 51.295734,88.2897209 Z M50.4496141,88.935352 C50.4496141,91.7649461 46.176352,96.1258728 40.5,96.1258728 C34.823648,96.1258728 30.5503865,91.7649461 30.5432761,89.0029445 C30.7376227,88.5810703 33.5651337,87.9540855 40.556882,87.9540855 C45.9820048,87.9540855 49.6271947,88.4155856 50.4496141,88.7815207 L50.4496141,88.935352 Z" id="path30" fill="#211E1E"></path>
                    <path d="M56.1449285,88.8071602 C56.2847643,92.6436604 61.586642,97.2423303 67.7607108,97.2423303 C74.0153609,97.2423303 79.3788593,92.5177956 79.3788593,88.6509958 C79.1679256,87.4273259 75.2406937,86.835301 67.6990901,86.835301 C66.5590773,86.835301 56.5478413,86.8772479 56.0501252,88.2897209 C56.0169364,88.3806258 55.9742825,88.5903965 56.1449285,88.8071602 Z M56.8938721,88.7815028 C57.7210308,88.4155677 61.3638526,87.9540676 66.7889778,87.9540676 C73.7807218,87.9540676 76.6082346,88.5810524 76.80258,89.0029266 C76.7954811,91.7649282 72.5222063,96.1258549 66.8458598,96.1258549 C61.1671348,96.1258549 56.8938721,91.7649282 56.8938721,88.9353341 L56.8938721,88.7815028 Z" id="path32" fill="#211E1E"></path>
                </g>
                <g id="Group" transform="translate(35.000000, 119.000000)" fill-rule="nonzero">
                    <path d="M45.7822417,1.5594002 C39.1547962,1.8786066 40.06641,20.6387633 40.06641,20.6387633 C40.06641,20.6387633 39.7849831,22.709922 38.8368961,23.9023385 C37.8888061,25.0947523 36.3004739,25.9473 35.8992026,25.5730813 L38.367616,15.5486246 L34.7260024,15.5486246 C34.7260024,15.5488019 32.7857566,25.5831355 30.6620366,25.953976 C28.5383166,26.3248165 29.1413303,24.2769506 29.1413312,22.1782494 C29.1413324,19.0874613 29.5977003,15.698603 27.1705926,15.4187742 C24.7434849,15.1389453 22.1586811,18.9593638 22.1586811,18.9593638 C22.1586811,18.9593638 22.4646427,16.7198718 20.037535,15.6005648 C17.6104273,14.4812579 11.5435651,17.2799643 11.5435651,17.2799643 C12.1086597,14.9165089 11.0826053,11.9357514 8.20229071,11.9647515 C5.65873366,12.1063928 3.86642045,13.7394259 2.13919172,15.0378794 L4.57006268,17.2799643 C4.57006268,17.2799643 6.98873685,14.7641145 8.20229071,16.1632502 C9.41584456,17.5623832 3.53094245,43.5394413 3.53094245,43.5394413 L7.1725562,43.5394413 L10.6331617,30.1524764 C10.6331617,30.1524764 18.5205934,30.7147241 20.037535,29.0357606 C21.5544766,27.3568016 22.7687452,22.8808481 22.7687452,22.8808481 C22.7687452,22.8808481 26.1082563,19.5168632 25.8048686,20.6361701 C25.5014809,21.7554771 25.1937536,29.309965 26.7106981,29.589791 C28.2276397,29.869617 31.2627152,29.589791 31.2627152,29.589791 L27.5835591,40.4712608 L23.3788094,40.782902 L22.7687452,43.5876722 L29.7516332,43.5876722 L34.6509175,29.5205374 C34.6509175,29.5205374 36.8499716,29.2298995 38.0954335,28.6029257 C39.3408954,27.9759536 40.3136973,26.8663311 41.2114534,26.040543 C41.4091578,27.4425874 41.4716764,28.5448411 43.3325995,29.4339704 C45.7443989,30.5863003 49.0927403,29.7557087 50.5313564,28.7414329 C54.0203256,30.840134 56.9041802,28.3259114 56.9041802,28.3259114 C56.9041802,28.3259114 60.2365435,31.1241818 62.0568758,28.3259114 C67.0627866,31.4040051 69.7906119,28.1960609 69.7906119,28.1960609 C69.7906119,28.1960609 70.0255974,29.7078324 74.2393874,29.9706857 C78.4531773,30.2335391 80.4620416,26.4647212 80.4620416,26.4647212 C81.2862747,27.4299029 81.7054191,29.4836031 83.7376167,29.6850147 C85.7698143,29.8864263 87.8003481,28.6861242 89.3408212,27.2005406 C90.4880241,29.1944389 91.657389,29.3500129 93.1232189,29.8321786 C94.5890487,30.3143442 97.4180974,28.8767129 98.6137961,28.1181506 C100.138408,30.6493792 104.626192,30.461774 105.943951,28.5769556 C105.962392,28.7094178 106.299658,28.9921866 108.074483,29.5378508 C108.777845,29.0642682 108.978036,28.2830351 109.820205,27.2265107 C109.061731,26.9466847 107.530118,26.2483038 107.530118,26.2483038 C107.078753,23.9177627 105.72006,21.7555411 104.273314,19.6086162 L105.793782,16.5354882 L102.762232,15.6957885 C100.892828,19.4367537 99.318308,22.7535933 98.0600456,24.9584557 C96.8017832,27.1633154 92.146879,27.2491538 91.2367128,25.3393505 C97.3319661,21.131605 98.007279,14.6544694 92.7477948,15.2732361 C87.8803164,15.845884 88.3202744,23.7325503 88.3202744,23.7325503 C88.3202744,23.7325503 86.5307629,25.3365388 84.1036552,25.6163648 C81.6765475,25.8961908 84.8732746,15.6438483 84.8732746,15.6438483 L81.5413858,15.6438483 C81.5413858,15.6438483 79.5356211,22.9462853 77.1301528,25.3393505 C74.9621118,27.4962108 74.0258341,26.2095076 73.4322256,25.953976 C72.8174882,25.6893484 80.2662294,1.57361212 80.2662294,1.57361212 L76.0115032,1.6087475 L71.5644908,15.8429524 C69.1373831,15.7975331 66.4080319,15.4756895 63.9809242,17.4704117 C60.7192157,20.2965591 61.9797787,26.6289561 58.2087789,25.4895463 C56.9952251,25.7693723 60.2642258,16.9683232 60.2642258,16.9683232 C60.0423051,15.5355274 55.239748,14.8832334 52.8496001,16.2411605 C48.1082251,18.9349006 48.5410891,24.2809894 47.6499765,26.2309904 C45.5486979,27.1269606 44.9666974,26.5347463 44.1364756,24.5689043 C47.6281328,20.8020355 53.0792875,1.83922624 46.1013521,1.5594002 C45.992323,1.55502789 45.8874385,1.55433344 45.7822417,1.5594002 Z M46.0404644,6.08382142 C46.0726998,6.07964128 46.1019078,6.0813837 46.1343204,6.08382142 C47.5843944,6.19242324 43.2481291,19.097871 43.2481291,19.097871 C42.798347,18.960699 44.0096393,6.34717038 46.0404644,6.08382142 Z M91.9473366,18.5314758 C92.6397357,17.9944056 93.1436089,18.1069516 93.2519353,18.4758253 C93.3602616,18.844699 90.6387163,22.1475022 90.6387163,22.1475022 C90.6533729,20.9054228 91.2549404,19.0685457 91.9473366,18.5314758 Z M69.3446772,19.2738174 C70.2134085,19.2512519 70.5568976,19.1360499 70.9825834,19.4354822 L69.6028999,25.0709928 C69.2995122,25.9218728 65.1868555,26.6102064 64.7317724,24.664128 C64.3050684,22.8394123 65.4677448,21.4126314 66.3131277,20.433815 C66.9957508,19.6434479 68.2277365,19.3028286 69.3446772,19.2738174 Z M55.8202618,19.431043 C56.0564967,19.4267133 56.3032464,19.4627022 56.5523388,19.5435812 L55.0037144,24.6741908 C54.2452436,25.6535861 52.2171787,26.0752224 52.0236671,24.6468135 C51.7717635,22.787409 53.5366592,19.4728885 55.8202618,19.431043 Z M17.8694609,19.4354822 C18.2707941,19.4434741 18.6296947,19.5331788 18.9112627,19.75578 C20.4129591,20.9429832 19.0874598,25.0645882 17.559736,26.0059162 C15.7231584,27.1375531 11.947146,26.3435275 11.947146,26.3435275 L13.4488423,21.0023446 C13.6231475,21.0023446 16.1303503,19.4008446 17.8694609,19.4354822 Z M103.015644,22.0930886 C103.015644,22.0930886 104.844638,25.691372 104.51734,26.2483038 C103.698681,27.6413452 100.817454,26.2262451 100.978968,25.754872 L103.015644,22.0930886 Z" id="path2841-2" fill="#000000"></path>
                    <path d="M84.5776206,8.95283824 C87.8544362,8.85006038 87.6619067,13.567454 84.3616346,13.2488571 C81.9988055,13.0207579 81.3008081,9.05561887 84.5776206,8.95283824 Z" id="path2915-9" fill="#000000"></path>
                    <path d="M44.5633118,0.83705759 C37.9358663,1.15626399 38.84748,19.9164206 38.84748,19.9164206 C38.84748,19.9164206 38.5660531,21.9875794 37.6179662,23.1799959 C36.6698762,24.3724097 35.081544,25.2249574 34.6802727,24.8507387 L37.1486861,14.826282 L33.5070724,14.826282 C33.5070724,14.8264593 31.5668267,24.8607929 29.4431067,25.2316334 C27.3193867,25.6024739 27.9224004,23.554608 27.9224013,21.4559068 C27.9224025,18.3651187 28.3787704,14.9762604 25.9516627,14.6964315 C23.524555,14.4166027 20.9397512,18.2370212 20.9397512,18.2370212 C20.9397512,18.2370212 21.2457128,15.9975292 18.8186051,14.8782222 C16.3914974,13.7589153 10.3246351,16.5576217 10.3246351,16.5576217 C10.8897298,14.1941663 9.86367534,11.2134088 6.98336078,11.2424089 C4.43980374,11.3840502 2.64749053,13.0170833 0.920261799,14.3155368 L3.35113275,16.5576217 C3.35113275,16.5576217 5.76980693,14.0417719 6.98336078,15.4409076 C8.19691463,16.8400406 2.31201253,42.8170986 2.31201253,42.8170986 L5.95362628,42.8170986 L9.41423174,29.4301338 C9.41423174,29.4301338 17.3016635,29.9923815 18.8186051,28.313418 C20.3355466,26.634459 21.5498153,22.1585055 21.5498153,22.1585055 C21.5498153,22.1585055 24.8893264,18.7945206 24.5859387,19.9138275 C24.2825509,21.0331345 23.9748236,28.5876224 25.4917682,28.8674484 C27.0087098,29.1472744 30.0437852,28.8674484 30.0437852,28.8674484 L26.3646292,39.7489182 L22.1598794,40.0605593 L21.5498153,42.8653296 L28.5327033,42.8653296 L33.4319876,28.7981948 C33.4319876,28.7981948 35.6310417,28.5075569 36.8765036,27.8805831 C38.1219655,27.253611 39.0947674,26.1439885 39.9925235,25.3182004 C40.1902278,26.7202448 40.2527465,27.8224985 42.1136696,28.7116278 C44.525469,29.8639576 47.8738103,29.0333661 49.3124264,28.0190903 C52.8013956,30.1177914 55.6852503,27.6035688 55.6852503,27.6035688 C55.6852503,27.6035688 59.0176136,30.4018392 60.8379459,27.6035688 C65.8438566,30.6816624 68.571682,27.4737183 68.571682,27.4737183 C68.571682,27.4737183 68.8066675,28.9854897 73.0204574,29.2483431 C77.2342474,29.5111965 79.2431117,25.7423786 79.2431117,25.7423786 C80.0673447,26.7075603 80.4864892,28.7612605 82.5186868,28.9626721 C84.5508844,29.1640837 86.5814181,27.9637816 88.1218913,26.478198 C89.2690942,28.4720963 90.4384591,28.6276703 91.9042889,29.1098359 C93.3701188,29.5920016 96.1991675,28.1543703 97.3948662,27.395808 C98.9194784,29.9270366 103.407262,29.7394314 104.725021,27.854613 C104.743462,27.9870752 105.080728,28.269844 106.855553,28.8155082 C107.558915,28.3419256 107.759106,27.5606925 108.601275,26.5041681 C107.842801,26.224342 106.311188,25.5259612 106.311188,25.5259612 C105.859823,23.1954201 104.501131,21.0331984 103.054384,18.8862735 L104.574852,15.8131456 L101.543302,14.9734459 C99.6738976,18.7144111 98.099378,22.0312507 96.8411157,24.2361131 C95.5828533,26.4409728 90.9279491,26.5268112 90.0177829,24.6170078 C96.1130362,20.4092624 96.7883491,13.9321268 91.5288649,14.5508935 C86.6613865,15.1235414 87.1013445,23.0102077 87.1013445,23.0102077 C87.1013445,23.0102077 85.311833,24.6141961 82.8847253,24.8940222 C80.4576176,25.1738482 83.6543447,14.9215057 83.6543447,14.9215057 L80.3224559,14.9215057 C80.3224559,14.9215057 78.3166912,22.2239427 75.9112229,24.6170078 C73.7431818,26.7738681 72.8069042,25.487165 72.2132957,25.2316334 C71.5985582,24.9670058 79.0472995,0.851269504 79.0472995,0.851269504 L74.7925733,0.886404885 L70.3455608,15.1206098 C67.9184531,15.0751905 65.189102,14.7533469 62.7619943,16.7480691 C59.5002858,19.5742165 60.7608488,25.9066135 56.989849,24.7672036 C55.7762951,25.0470297 59.0452959,16.2459805 59.0452959,16.2459805 C58.8233752,14.8131848 54.0208181,14.1608908 51.6306702,15.5188179 C46.8892952,18.212558 47.3221592,23.5586468 46.4310466,25.5086478 C44.3297679,26.404618 43.7477675,25.8124037 42.9175457,23.8465617 C46.4092029,20.0796929 51.8603576,1.11688363 44.8824222,0.83705759 C44.7733931,0.832685279 44.6685086,0.831990832 44.5633118,0.83705759 Z M44.8215344,5.36147881 C44.8537699,5.35729867 44.8829779,5.35904109 44.9153905,5.36147881 C46.3654645,5.47008062 42.0291992,18.3755283 42.0291992,18.3755283 C41.5794171,18.2383564 42.7907094,5.62482776 44.8215344,5.36147881 Z M90.7284066,17.8091332 C91.4208058,17.272063 91.924679,17.384609 92.0330053,17.7534827 C92.1413317,18.1223563 89.4197864,21.4251596 89.4197864,21.4251596 C89.434443,20.1830802 90.0360105,18.346203 90.7284066,17.8091332 Z M68.1257473,18.5514748 C68.9944786,18.5289092 69.3379676,18.4137073 69.7636535,18.7131396 L68.38397,24.3486502 C68.0805823,25.1995302 63.9679255,25.8878638 63.5128425,23.9417854 C63.0861385,22.1170697 64.2488148,20.6902888 65.0941978,19.7114724 C65.7768209,18.9211053 67.0088066,18.580486 68.1257473,18.5514748 Z M54.6013319,18.7087004 C54.8375667,18.7043707 55.0843165,18.7403596 55.3334088,18.8212386 L53.7847845,23.9518482 C53.0263137,24.9312435 50.9982488,25.3528798 50.8047372,23.9244709 C50.5528336,22.0650664 52.3177293,18.7505459 54.6013319,18.7087004 Z M16.650531,18.7131396 C17.0518641,18.7211314 17.4107648,18.8108362 17.6923328,19.0334374 C19.1940292,20.2206406 17.8685299,24.3422456 16.3408061,25.2835736 C14.5042285,26.4152105 10.728216,25.6211849 10.728216,25.6211849 L12.2299124,20.280002 C12.4042176,20.280002 14.9114204,18.678502 16.650531,18.7131396 Z M101.796714,21.370746 C101.796714,21.370746 103.625708,24.9690294 103.29841,25.5259612 C102.479751,26.9190026 99.5985245,25.5039025 99.7600379,25.0325294 L101.796714,21.370746 Z" id="path2841-2-0" fill="#FA023C"></path>
                    <path d="M83.3586907,8.23049563 C86.6355062,8.12771776 86.4429768,12.8451114 83.1427047,12.5265145 C80.7798756,12.2984153 80.0818781,8.33327626 83.3586907,8.23049563 Z" id="path2915-9-9" fill="#FA023C"></path>
                </g>
            </g>
        </g>
    </g>
</svg>