<?xml version="1.0" encoding="UTF-8"?>
<svg width="180px" height="180px" viewBox="0 0 180 180" version="1.1" xmlns="http://www.w3.org/2000/svg" xmlns:xlink="http://www.w3.org/1999/xlink" style="background: #FFFFFF;">
    <!-- Generator: Sketch 48.2 (47327) - http://www.bohemiancoding.com/sketch -->
    <title>r-ladies</title>
    <desc>Created with Sketch.</desc>
    <defs>
        <linearGradient x1="-0.401066972%" y1="0.40858125%" x2="100.353627%" y2="99.6234712%" id="linearGradient-1">
            <stop stop-color="#CACDCF" offset="0%"></stop>
            <stop stop-color="#83838B" offset="100%"></stop>
        </linearGradient>
        <linearGradient x1="0.0077136515%" y1="49.9910016%" x2="100.017703%" y2="49.9910016%" id="linearGradient-2">
            <stop stop-color="#88398A" offset="0%"></stop>
            <stop stop-color="#843786" offset="16.52%"></stop>
            <stop stop-color="#783279" offset="33.65%"></stop>
            <stop stop-color="#632A65" offset="51.05%"></stop>
            <stop stop-color="#471E48" offset="68.64%"></stop>
            <stop stop-color="#220E23" offset="86.21%"></stop>
            <stop stop-color="#000000" offset="100%"></stop>
        </linearGradient>
    </defs>
    <g id="Logos" stroke="none" stroke-width="1" fill="none" fill-rule="evenodd">
        <g id="r-ladies">
            <g id="download" transform="translate(16.000000, 9.000000)">
                <path d="M72.7585622,98.6519201 C32.7214009,98.6519201 0.26602765,76.5716252 0.26602765,49.348129 C0.26602765,22.1246329 32.7214009,0.0443379416 72.7585622,0.0443379416 C112.795724,0.0443379416 145.251097,22.1246329 145.251097,49.348129 C145.206759,76.5716252 112.751386,98.6519201 72.7585622,98.6519201 Z M83.8430476,19.3313425 C53.4272197,19.3313425 28.7309862,34.4062427 28.7309862,53.0281782 C28.7309862,71.6501137 53.3828817,86.7250138 83.8430476,86.7250138 C114.258876,86.7250138 136.738212,76.3942734 136.738212,53.0281782 C136.693874,29.6620829 114.258876,19.3313425 83.8430476,19.3313425 Z" id="Shape" fill="url(#linearGradient-1)" fill-rule="nonzero"></path>
                <path d="M117.894587,83.4440061 C116.786138,82.2468817 115.278648,81.3601229 114.391889,80.9167435 C111.864627,79.6309432 107.475171,78.256467 107.475171,78.256467 C107.475171,78.256467 129.067748,76.6159631 129.067748,54.8016959 C129.067748,32.9874286 106.499736,32.5883871 106.499736,32.5883871 L56.8412412,32.5883871 L56.8412412,115.367324 L81.5374747,115.367324 L81.5374747,82.9562888 C81.5374747,82.9562888 87.2127312,82.9562888 88.1881659,82.9562888 C89.5626421,82.9562888 90.1390353,83.3553303 91.5135115,84.4637788 C93.1540154,85.7939171 95.8142919,90.4937389 95.8142919,90.4937389 L108.849647,115.367324 L136.738212,115.367324 L119.490753,85.7939171 C119.490753,85.7939171 118.958697,84.5967926 117.894587,83.4440061 Z M96.7010507,64.600381 L81.7591644,64.600381 L81.7591644,50.5452535 L96.7010507,50.5452535 C96.7010507,50.5452535 103.61777,50.146212 103.61777,57.4619724 C103.61777,64.556043 96.7010507,64.600381 96.7010507,64.600381 Z" id="Shape" fill="url(#linearGradient-2)" fill-rule="nonzero"></path>
                <rect id="Rectangle-path" x="9.00060215" y="120.820891" width="138.423054" height="40.9239201"></rect>
                <path d="M12.3687283,122.684452 L16.6769561,122.684452 L16.6769561,150.698757 L32.7840989,150.698757 L32.7840989,154.4874 L12.3687283,154.4874 L12.3687283,122.684452 Z M39.4954085,148.317325 C39.4954085,149.443098 39.9067427,150.330714 40.7294234,150.980199 C41.5521042,151.629684 42.5263168,151.954421 43.6520905,151.954421 C45.0232251,151.954421 46.3510408,151.6369 47.6355774,151.001848 C49.8005268,149.94824 50.8829853,148.223523 50.8829853,145.827645 L50.8829853,142.688484 C50.4066964,142.991577 49.7933033,143.244151 49.0427875,143.446213 C48.2922717,143.648275 47.5562,143.792603 46.8345502,143.879201 L44.4747671,144.182292 C43.0603335,144.369921 41.9995243,144.665793 41.2923075,145.069917 C40.0943688,145.748268 39.4954085,146.830726 39.4954085,148.317325 Z M48.9345406,140.436948 C49.8293863,140.321484 50.4283466,139.946232 50.7314396,139.31118 C50.9046355,138.964788 50.9912322,138.466857 50.9912322,137.817373 C50.9912322,136.489537 50.5185587,135.526149 49.5731974,134.92718 C48.6278362,134.32821 47.2747631,134.02873 45.5139376,134.02873 C43.4788852,134.02873 42.0356073,134.577176 41.1840605,135.674083 C40.7077717,136.280269 40.3974669,137.182318 40.2531369,138.380257 L36.6160402,138.380257 C36.6882052,135.522523 37.6155112,133.534408 39.3979862,132.415851 C41.1804612,131.297294 43.2479569,130.738024 45.6005352,130.738024 C48.3283714,130.738024 50.543803,131.257604 52.2468965,132.296779 C53.9355571,133.335955 54.7798747,134.952426 54.7798747,137.146242 L54.7798747,150.503913 C54.7798747,150.908036 54.8628631,151.232774 55.0288426,151.478135 C55.194822,151.723496 55.5448169,151.846174 56.0788378,151.846174 C56.2520337,151.846174 56.4468763,151.83535 56.6633712,151.8137 C56.8798661,151.792051 57.1107906,151.759577 57.3561515,151.716278 L57.3561515,154.595646 C56.7499657,154.768842 56.2881168,154.877088 55.9705909,154.920387 C55.653065,154.963686 55.2200816,154.985335 54.6716277,154.985335 C53.3293591,154.985335 52.3551465,154.509054 51.7489607,153.556476 C51.4314348,153.051321 51.2077267,152.336899 51.0778297,151.413187 C50.284015,152.452362 49.1438254,153.354411 47.6572268,154.11936 C46.1706282,154.884309 44.5325078,155.266777 42.7428163,155.266777 C40.5922999,155.266777 38.835109,154.613694 37.4711909,153.307508 C36.1072728,152.001322 35.425324,150.36681 35.425324,148.403922 C35.425324,146.253406 36.0964482,144.58642 37.4387168,143.402914 C38.7809854,142.219408 40.5417845,141.490553 42.7211669,141.216326 L48.9345406,140.436948 Z M63.6344734,143.164771 C63.6344734,145.647246 64.1612698,147.725566 65.2148785,149.399794 C66.2684872,151.074021 67.9571224,151.911123 70.2808347,151.911123 C72.0849592,151.911123 73.5679273,151.135361 74.7297835,149.583814 C75.8916396,148.032267 76.472559,145.80601 76.472559,142.904978 C76.472559,139.97508 75.8735986,137.806555 74.67566,136.399338 C73.4777213,134.992121 71.9983614,134.288523 70.2375359,134.288523 C68.2746485,134.288523 66.6834346,135.039027 65.4638464,136.540059 C64.2442583,138.04109 63.6344734,140.249306 63.6344734,143.164771 Z M69.5014568,130.889569 C71.2767153,130.889569 72.7632916,131.264822 73.9612303,132.015337 C74.6540141,132.448327 75.4406005,133.206048 76.3210133,134.288523 L76.3210133,122.576205 L80.066357,122.576205 L80.066357,154.4874 L76.5591565,154.4874 L76.5591565,151.261641 C75.6498778,152.690508 74.5746357,153.722451 73.3333981,154.357503 C72.0921604,154.992555 70.6705317,155.310076 69.0684691,155.310076 C66.4849629,155.310076 64.2478821,154.22401 62.3571596,152.051844 C60.4664371,149.879678 59.5210901,146.989514 59.5210901,143.381265 C59.5210901,140.003944 60.3834487,137.077698 62.1081917,134.602439 C63.8329347,132.12718 66.2973318,130.889569 69.5014568,130.889569 Z M85.8250936,131.409155 L89.7869311,131.409155 L89.7869311,154.4874 L85.8250936,154.4874 L85.8250936,131.409155 Z M85.8250936,122.684452 L89.7869311,122.684452 L89.7869311,127.100927 L85.8250936,127.100927 L85.8250936,122.684452 Z M105.33119,130.781322 C106.976551,130.781322 108.571374,131.167399 110.115704,131.939564 C111.660035,132.71173 112.836306,133.7112 113.644554,134.938004 C114.423936,136.107077 114.943516,137.470975 115.20331,139.029738 C115.434238,140.09778 115.5497,141.800848 115.5497,144.138993 L98.5549323,144.138993 C98.6270972,146.491572 99.1827592,148.378657 100.221935,149.800308 C101.261111,151.221958 102.870366,151.932772 105.049748,151.932772 C107.0848,151.932772 108.708488,151.261648 109.92086,149.919379 C110.613643,149.139997 111.104358,148.237949 111.393018,147.213206 L115.224959,147.213206 C115.123928,148.064753 114.788366,149.013708 114.218263,150.0601 C113.648159,151.106492 113.009509,151.961635 112.302292,152.625552 C111.118786,153.780192 109.653859,154.559562 107.907467,154.963686 C106.969322,155.194614 105.908513,155.310076 104.725007,155.310076 C101.838408,155.310076 99.3920519,154.260091 97.3858654,152.160091 C95.379679,150.06009 94.3766008,147.119411 94.3766008,143.337966 C94.3766008,139.614253 95.3868954,136.590586 97.4075148,134.266873 C99.4281342,131.943161 102.069333,130.781322 105.33119,130.781322 Z M111.544564,141.043131 C111.385801,139.354471 111.017765,138.005006 110.440445,136.994696 C109.372403,135.118407 107.589955,134.180276 105.093047,134.180276 C103.303355,134.180276 101.802346,134.826143 100.589975,136.117896 C99.3776029,137.409649 98.7353442,139.051378 98.6631792,141.043131 L111.544564,141.043131 Z M122.650698,147.213206 C122.766162,148.512176 123.0909,149.508037 123.624921,150.200821 C124.606364,151.456492 126.309432,152.084318 128.734176,152.084318 C130.177475,152.084318 131.44756,151.770405 132.544468,151.142569 C133.641375,150.514734 134.189821,149.54413 134.189821,148.230727 C134.189821,147.23485 133.749621,146.477129 132.869208,145.957542 C132.306322,145.640016 131.194998,145.27198 129.535203,144.853423 L126.439341,144.074045 C124.46202,143.583323 123.00431,143.034878 122.066165,142.428692 C120.391937,141.375083 119.554836,139.917372 119.554836,138.055516 C119.554836,135.861701 120.345031,134.086469 121.925444,132.729767 C123.505857,131.373065 125.631084,130.694725 128.301188,130.694725 C131.793973,130.694725 134.312493,131.719452 135.856824,133.768938 C136.823834,135.067907 137.2929,136.467887 137.264034,137.968918 L133.583638,137.968918 C133.511473,137.088506 133.201168,136.287486 132.652715,135.565837 C131.757869,134.541094 130.206345,134.02873 127.998097,134.02873 C126.525931,134.02873 125.410999,134.310169 124.653267,134.873056 C123.895534,135.435943 123.516674,136.179231 123.516674,137.102943 C123.516674,138.113253 124.014605,138.921488 125.010481,139.527674 C125.587801,139.888499 126.439335,140.20602 127.565109,140.480247 L130.141386,141.108079 C132.941387,141.78643 134.817648,142.443122 135.770226,143.078173 C137.285691,144.07405 138.043412,145.640007 138.043412,147.77609 C138.043412,149.840008 137.260433,151.622457 135.694453,153.123488 C134.128473,154.62452 131.743456,155.375024 128.539331,155.375024 C125.089845,155.375024 122.647097,154.592046 121.211014,153.026066 C119.774931,151.460086 119.006386,149.522485 118.905355,147.213206 L122.650698,147.213206 Z" id="Ladies" fill="#A7A9AC"></path>
            </g>
        </g>
    </g>
</svg>