<?xml version="1.0" encoding="UTF-8"?>
<svg width="180px" height="180px" viewBox="0 0 180 180" version="1.1" xmlns="http://www.w3.org/2000/svg" xmlns:xlink="http://www.w3.org/1999/xlink" style="background: #FFFFFF;">
    <!-- Generator: Sketch 48.2 (47327) - http://www.bohemiancoding.com/sketch -->
    <title>r-ladies</title>
    <desc>Created with Sketch.</desc>
    <defs>
        <linearGradient x1="-0.401066972%" y1="0.398774101%" x2="100.353627%" y2="99.6353789%" id="linearGradient-1">
            <stop stop-color="#CACDCF" offset="0%"></stop>
            <stop stop-color="#84838B" offset="100%"></stop>
        </linearGradient>
        <linearGradient x1="0.0077136515%" y1="49.9910016%" x2="100.017703%" y2="49.9910016%" id="linearGradient-2">
            <stop stop-color="#893A8B" offset="0%"></stop>
            <stop stop-color="#853887" offset="16.46%"></stop>
            <stop stop-color="#79337A" offset="33.52%"></stop>
            <stop stop-color="#642A66" offset="50.86%"></stop>
            <stop stop-color="#481E49" offset="68.39%"></stop>
            <stop stop-color="#230F24" offset="85.89%"></stop>
            <stop stop-color="#000000" offset="100%"></stop>
        </linearGradient>
    </defs>
    <g id="Logos" stroke="none" stroke-width="1" fill="none" fill-rule="evenodd">
        <g id="r-ladies" fill-rule="nonzero">
            <g transform="translate(16.000000, 32.000000)" id="Shape">
                <path d="M73.5,100 C32.906422,100 0,77.6079137 0,50 C0,22.3920863 32.906422,0 73.5,0 C114.093578,0 147,22.3920863 147,50 C146.955046,77.6079137 114.048624,100 73.5,100 Z M84.7385321,19.5593525 C53.9,19.5593525 28.8605505,34.8471223 28.8605505,53.7320144 C28.8605505,72.6169065 53.8550459,87.9046763 84.7385321,87.9046763 C115.577064,87.9046763 138.368807,77.4280576 138.368807,53.7320144 C138.323853,30.0359712 115.577064,19.5593525 84.7385321,19.5593525 Z" fill="url(#linearGradient-1)"></path>
                <path d="M119.896226,84.6057847 C118.772475,83.3910016 117.244173,82.4911623 116.345172,82.0412426 C113.783019,80.7364756 109.332963,79.3417247 109.332963,79.3417247 C109.332963,79.3417247 131.22364,77.677022 131.22364,55.5409748 C131.22364,33.4049277 108.344062,33 108.344062,33 L58,33 L58,117 L83.0371809,117 L83.0371809,84.1108731 C83.0371809,84.1108731 88.790788,84.1108731 89.7796892,84.1108731 C91.173141,84.1108731 91.7574917,84.5158007 93.1509434,85.6405999 C94.8140954,86.9903589 97.5110988,91.7595072 97.5110988,91.7595072 L110.726415,117 L139,117 L121.514428,86.9903589 C121.514428,86.9903589 120.975028,85.7755758 119.896226,84.6057847 Z M98.4100999,65.4841993 L83.2619312,65.4841993 L83.2619312,51.2217461 L98.4100999,51.2217461 C98.4100999,51.2217461 105.422309,50.8168184 105.422309,58.2404928 C105.422309,65.4392073 98.4100999,65.4841993 98.4100999,65.4841993 Z" fill="url(#linearGradient-2)"></path>
            </g>
        </g>
    </g>
</svg>