<svg xmlns="http://www.w3.org/2000/svg" xmlns:xlink="http://www.w3.org/1999/xlink" width="136" height="60" viewBox="0 0 136 60">
    <defs>
        <path id="b" d="M7.408 18.611h.911c3.208 0 5.516 1.115 6.923 3.343.445 1.186.668 2.847.668 4.985v2.188H9.17v-3.83c0-1.782-.203-2.674-.608-2.674a.48.48 0 0 0-.243-.06h-.546c-.648 0-.972.607-.972 1.823v12.461c0 1.054.202 1.641.607 1.763.223.04.405.06.547.06h.182c.688 0 1.032-.688 1.032-2.066v-3.708h6.74v.973c0 3.221-.384 5.227-1.153 6.018-1.569 1.823-3.714 2.735-6.437 2.735h-.668c-2.915 0-5.06-.851-6.437-2.553C.404 39.339 0 36.685 0 32.106v-2.432c0-4.498.182-6.95.547-7.355.678-1.428 1.912-2.482 3.704-3.16 1.083-.365 2.135-.548 3.157-.548zm12.557.32h9.655c.1 0 .222.648.364 1.944.162.67 1.336 7.74 3.522 21.215h-6.194c-.101 0-.202-.669-.303-2.006-.04 0-.142-.77-.304-2.31h-2.247v-.06c.122-1.49.263-2.766.425-3.83h1.336c0-.162-.384-3.364-1.154-9.604h-.06c0 .303-.709 6.24-2.126 17.81h-6.315c.01-.182 1.144-7.902 3.4-23.16zm14.104.06h6.68V37.41h4.069v4.681H34.13l-.121-.06.06-.122V18.99zm11.433 0h6.68V37.41h4.068v4.681H45.563l-.121-.06.06-.122V18.99zm10.695 7.873h.166c1.173 0 1.971.451 2.395 1.355.11.211.166.906.166 2.084v1.417c0 1.358-.09 2.13-.27 2.313-.483.75-1.219 1.126-2.207 1.126h-.375c-.923 0-1.638-.334-2.145-1-.222-.29-.333-.893-.333-1.814v-2.5c0-.97.084-1.581.25-1.835.465-.764 1.25-1.146 2.353-1.146zm-.292 6.106c0 .542.063.813.188.813l.125.02h.083c.194 0 .291-.207.291-.624.014-.09.021-.306.021-.646V29.28c0-.653-.042-.98-.125-.98 0-.04-.076-.069-.229-.082-.236 0-.354.215-.354.646v4.105zm3.176-5.955h3.893v1.605h-1.582v1.5h1.416v1.48c0 .028-.014.042-.042.042h-1.374v3.334H59.08v-7.961zm4.877-8.024h7.955c.04 0 .06.02.06.06.04 0 .061-.02.061-.06 2.642.162 4.16.405 4.554.73.942.293 1.71.901 2.308 1.823.445.598.668 2.38.668 5.35v8.327c0 3.05-.304 4.792-.911 5.228-.719 1.094-2.58 1.641-5.587 1.641h-9.108V18.991zm6.8 3.951v15.136h.365c1.053 0 1.579-.466 1.579-1.398.081-.567.121-1.48.121-2.735v-7.356c0-2.147-.141-3.221-.425-3.221 0-.203-.546-.345-1.64-.426zm12.755-4.012h9.655c.1 0 .222.649.364 1.945.162.67 1.336 7.74 3.522 21.215H90.86c-.101 0-.202-.669-.303-2.006-.041 0-.142-.77-.304-2.31h-2.247v-.06c.122-1.49.263-2.766.425-3.83h1.336c0-.162-.384-3.364-1.154-9.604h-.06c0 .303-.709 6.24-2.126 17.81h-6.315c.01-.182 1.144-7.902 3.4-23.16zm14.165 0h14.452c.081.01.122.051.122.122v4.559h-3.947V42.09h-6.68c-.08 0-.121-.04-.121-.122V23.611h-3.947v-4.56c.01-.08.05-.12.121-.12zm18.78 0h9.656c.1 0 .222.649.364 1.945.162.67 1.336 7.74 3.522 21.215h-6.194c-.101 0-.202-.669-.303-2.006-.04 0-.142-.77-.304-2.31h-2.247v-.06c.122-1.49.263-2.766.425-3.83h1.336c0-.162-.384-3.364-1.154-9.604h-.06c0 .303-.709 6.24-2.126 17.81h-6.315c.01-.182 1.144-7.902 3.4-23.16z"/>
        <filter id="a" width="106.9%" height="137.5%" x="-3.5%" y="-18.7%" filterUnits="objectBoundingBox">
            <feOffset in="SourceAlpha" result="shadowOffsetOuter1"/>
            <feGaussianBlur in="shadowOffsetOuter1" result="shadowBlurOuter1" stdDeviation="1.5"/>
            <feColorMatrix in="shadowBlurOuter1" values="0 0 0 0 0.548097364 0 0 0 0 0.0725929811 0 0 0 0 0.00504974489 0 0 0 1 0"/>
        </filter>
    </defs>
    <g fill="none" fill-rule="evenodd">
        <path fill="#FFF" d="M33.81 0h32.13c.393.026.59.13.59.314V60H33.81V0zm36.412 0h32.13c.394.026.59.13.59.314V60h-32.72V0z" opacity=".341"/>
        <g transform="translate(3)">
            <use fill="#000" filter="url(#a)" xlink:href="#b"/>
            <use fill="#FFF" xlink:href="#b"/>
        </g>
    </g>
</svg>
