<?xml version="1.0" encoding="UTF-8"?>
<svg width="77px" height="77px" viewBox="0 0 77 77" version="1.1" xmlns="http://www.w3.org/2000/svg" xmlns:xlink="http://www.w3.org/1999/xlink">
    <!-- Generator: Sketch 42 (36781) - http://www.bohemiancoding.com/sketch -->
    <title>tba</title>
    <desc>Created with Sketch.</desc>
    <defs></defs>
    <g id="Page-1" stroke="none" stroke-width="1" fill="none" fill-rule="evenodd">
        <g id="tba">
            <rect id="Rectangle-25" fill="#B4B4B5" x="0" y="0" width="77" height="77"></rect>
            <g id="clock" transform="translate(21.000000, 21.000000)" fill-rule="nonzero" fill="#FFFFFF">
                <path d="M17.5,0 C7.875,0 0,7.875 0,17.5 C0,27.125 7.875,35 17.5,35 C27.125,35 35,27.125 35,17.5 C35,7.875 27.125,0 17.5,0 Z M17.5,30.625 C10.28125,30.625 4.375,24.71875 4.375,17.5 C4.375,10.28125 10.28125,4.375 17.5,4.375 C24.71875,4.375 30.625,10.28125 30.625,17.5 C30.625,24.71875 24.71875,30.625 17.5,30.625 Z" id="Shape"></path>
                <path d="M24.0625,16.3125 L19.6875,16.3125 L19.6875,9.75 C19.6875,8.65625 18.59375,7.5625 17.5,7.5625 C16.40625,7.5625 15.3125,8.65625 15.3125,9.75 L15.3125,18.5 C15.3125,19.59375 16.40625,20.6875 17.5,20.6875 L24.0625,20.6875 C25.15625,20.6875 26.25,19.59375 26.25,18.5 C26.25,17.40625 25.15625,16.3125 24.0625,16.3125 Z" id="Shape"></path>
            </g>
        </g>
    </g>
</svg>